<svg width="50" height="50" viewBox="0 0 50 50" fill="none" xmlns="http://www.w3.org/2000/svg">
<path d="M37.5005 1.5H37.5L12.5 1.5L12.4995 1.5C9.58312 1.50277 6.78696 2.66254 4.72475 4.72475C2.66254 6.78696 1.50277 9.58312 1.5 12.4995V12.5L1.5 37.5L1.5 37.5005C1.50277 40.4169 2.66254 43.213 4.72475 45.2752C6.78696 47.3375 9.58312 48.4972 12.4995 48.5H12.5H37.5H37.5005C40.4169 48.4972 43.213 47.3375 45.2752 45.2752C47.3375 43.213 48.4972 40.4169 48.5 37.5005V37.5V12.5V12.4995C48.4972 9.58312 47.3375 6.78696 45.2752 4.72475C43.213 2.66254 40.4169 1.50277 37.5005 1.5ZM12.5 0.5H37.5C39.0759 0.5 40.6363 0.810389 42.0922 1.41345C43.5481 2.0165 44.871 2.90042 45.9853 4.01472C47.0996 5.12902 47.9835 6.45189 48.5866 7.9078C49.1896 9.36371 49.5 10.9241 49.5 12.5V37.5C49.5 39.0759 49.1896 40.6363 48.5866 42.0922C47.9835 43.5481 47.0996 44.871 45.9853 45.9853C44.871 47.0996 43.5481 47.9835 42.0922 48.5866C40.6363 49.1896 39.0759 49.5 37.5 49.5H12.5C9.3174 49.5 6.26516 48.2357 4.01472 45.9853C2.90042 44.871 2.0165 43.5481 1.41345 42.0922C0.810389 40.6363 0.5 39.0759 0.5 37.5V12.5C0.5 9.3174 1.76428 6.26516 4.01472 4.01472C6.26516 1.76428 9.3174 0.5 12.5 0.5Z" stroke="#2B2D42"/>
<path d="M30.8335 16.2696C29.1068 15.1158 27.0767 14.5 25 14.5C22.2152 14.5 19.5445 15.6062 17.5754 17.5754C15.6062 19.5445 14.5 22.2152 14.5 25C14.5 27.0767 15.1158 29.1068 16.2696 30.8335C17.4233 32.5602 19.0632 33.906 20.9818 34.7007C22.9004 35.4955 25.0117 35.7034 27.0485 35.2982C29.0853 34.8931 30.9562 33.8931 32.4246 32.4246C33.8931 30.9562 34.8931 29.0853 35.2982 27.0485C35.7034 25.0117 35.4955 22.9004 34.7007 20.9818C33.906 19.0632 32.5602 17.4233 30.8335 16.2696ZM18.6109 15.4381C20.5021 14.1745 22.7255 13.5 25 13.5C28.05 13.5 30.9751 14.7116 33.1317 16.8683C35.2884 19.0249 36.5 21.95 36.5 25C36.5 27.2745 35.8255 29.4979 34.5619 31.3891C33.2983 33.2802 31.5022 34.7542 29.4009 35.6246C27.2995 36.495 24.9872 36.7228 22.7565 36.279C20.5257 35.8353 18.4766 34.74 16.8683 33.1317C15.26 31.5234 14.1647 29.4743 13.721 27.2435C13.2772 25.0128 13.505 22.7005 14.3754 20.5991C15.2458 18.4978 16.7198 16.7017 18.6109 15.4381Z" stroke="#2B2D42"/>
<path d="M40.3889 7.92133C39.9778 7.64662 39.4945 7.5 39 7.5C38.337 7.5 37.7011 7.76339 37.2322 8.23223C36.7634 8.70107 36.5 9.33696 36.5 10C36.5 10.4945 36.6466 10.9778 36.9213 11.3889C37.196 11.8001 37.5865 12.1205 38.0433 12.3097C38.5001 12.4989 39.0028 12.5484 39.4877 12.452C39.9727 12.3555 40.4181 12.1174 40.7678 11.7678C41.1174 11.4181 41.3555 10.9727 41.452 10.4877C41.5484 10.0028 41.4989 9.50011 41.3097 9.04329C41.1205 8.58648 40.8 8.19603 40.3889 7.92133ZM37.0555 7.08986C37.6311 6.70527 38.3078 6.5 39 6.5C39.9283 6.5 40.8185 6.86875 41.4749 7.52513C42.1312 8.1815 42.5 9.07174 42.5 10C42.5 10.6922 42.2947 11.3689 41.9101 11.9445C41.5256 12.5201 40.9789 12.9687 40.3394 13.2336C39.6999 13.4985 38.9961 13.5678 38.3172 13.4327C37.6382 13.2977 37.0146 12.9644 36.5251 12.4749C36.0356 11.9854 35.7023 11.3617 35.5672 10.6828C35.4322 10.0039 35.5015 9.30015 35.7664 8.66061C36.0313 8.02107 36.4799 7.47444 37.0555 7.08986Z" stroke="#2B2D42"/>
</svg>
