<svg width="18" height="18" viewBox="0 0 18 18" fill="none" xmlns="http://www.w3.org/2000/svg">
<path d="M10.5 0.899902H7.50003C7.33445 0.899902 7.20004 1.0343 7.20004 1.19989C7.20004 1.36548 7.33445 1.49988 7.50003 1.49988H10.5C10.6656 1.49988 10.8 1.36548 10.8 1.19989C10.8 1.0343 10.6656 0.899902 10.5 0.899902Z" fill="#2B2D42"/>
<path d="M12.6 0.899902H12.3C12.1344 0.899902 12 1.0343 12 1.19989C12 1.36548 12.1344 1.49988 12.3 1.49988H12.6C12.7656 1.49988 12.9 1.36548 12.9 1.19989C12.9 1.0343 12.7656 0.899902 12.6 0.899902Z" fill="#2B2D42"/>
<path d="M9.37259 15.3H8.6277C8.17141 15.3 7.80002 15.6714 7.80002 16.1277V16.2726C7.80002 16.7289 8.17141 17.1 8.62742 17.1H9.37231C9.8286 17.1 10.2 16.7289 10.2 16.2726V16.1277C10.2 15.6714 9.8286 15.3 9.37259 15.3ZM9.60002 16.2726C9.60002 16.398 9.49803 16.5 9.37263 16.5H8.6277C8.50202 16.5 8.39999 16.398 8.39999 16.2726V16.1277C8.39999 16.002 8.50198 15.9 8.6277 15.9H9.37231C9.49803 15.9 9.60002 16.002 9.60002 16.1277V16.2726Z" fill="#2B2D42"/>
<path d="M13.0158 0H4.98449C4.38659 0 3.89999 0.486598 3.89999 1.0845V16.9155C3.89999 17.5134 4.38659 18 4.98449 18H13.0155C13.6134 18 14.1 17.5134 14.1 16.9158V1.0845C14.1 0.486598 13.6134 0 13.0158 0ZM13.5 16.9155C13.5 17.1825 13.2828 17.4 13.0158 17.4H4.98449C4.7172 17.4 4.50001 17.1825 4.50001 16.9158V1.0845C4.50001 0.817488 4.7172 0.600012 4.98449 0.600012H13.0155C13.2828 0.600012 13.5 0.817523 13.5 1.0845V16.9155H13.5Z" fill="#2B2D42"/>
<path d="M13.8 1.80005H4.20001C4.03443 1.80005 3.90002 1.93445 3.90002 2.10004V14.7C3.90002 14.8656 4.03443 15 4.20001 15H13.8C13.9656 15 14.1 14.8656 14.1 14.7V2.10004C14.1 1.93445 13.9656 1.80005 13.8 1.80005ZM13.5 14.4H4.5V2.40006H13.5V14.4Z" fill="#2B2D42"/>
</svg>
