<svg width="329" height="329" viewBox="0 0 329 329" fill="none" xmlns="http://www.w3.org/2000/svg">
<g clip-path="url(#clip0)">
<path d="M194.641 164.769L322.748 36.6587C331.084 28.3257 331.084 14.8523 322.748 6.5193C314.415 -1.81372 300.941 -1.81372 292.608 6.5193L164.498 134.629L36.3921 6.5193C28.0552 -1.81372 14.5857 -1.81372 6.25269 6.5193C-2.08423 14.8523 -2.08423 28.3257 6.25269 36.6587L134.359 164.769L6.25269 292.879C-2.08423 301.212 -2.08423 314.685 6.25269 323.018C10.4055 327.175 15.8659 329.263 21.3224 329.263C26.7789 329.263 32.2353 327.175 36.3921 323.018L164.498 194.908L292.608 323.018C296.765 327.175 302.221 329.263 307.678 329.263C313.134 329.263 318.591 327.175 322.748 323.018C331.084 314.685 331.084 301.212 322.748 292.879L194.641 164.769Z" fill="white"/>
</g>
<defs>
<clipPath id="clip0">
<rect width="329" height="329" fill="white"/>
</clipPath>
</defs>
</svg>
