<svg width="204" height="198" viewBox="0 0 204 198" fill="none" xmlns="http://www.w3.org/2000/svg">
<path d="M163.524 140.307C162.221 127.572 154.425 116.936 145.227 107.989C151.449 110.661 157.453 112.437 163.405 113.351C165.959 113.723 168.529 113.909 171.048 113.892C179.453 113.808 186.944 111.457 193.928 108.176C187.147 121.84 177.745 135.115 163.524 140.307ZM152.616 142.284C147.408 142.335 142.233 141.219 137.177 139.376C135.316 127.151 130.26 115.008 126.253 105.047C127.809 103.897 129.416 102.764 131.039 101.683C143.84 112.032 157.724 125.205 159.008 141.608C156.912 142.032 154.78 142.267 152.616 142.284V142.284ZM136.601 184.408C137.804 176.917 137.972 169.392 135.909 161.58C137.703 156.067 138.141 150.265 137.719 144.416C142.589 146.023 147.593 146.952 152.667 146.901C154.78 146.884 156.877 146.699 159.008 146.309C157.977 161.36 147.831 174.127 136.601 184.408V184.408ZM132.949 153.377C130.447 148.017 127.099 142.792 122.837 137.635C123.648 138.141 124.511 138.597 125.373 139.072C127.825 140.391 130.363 141.592 132.916 142.656C133.288 146.259 133.339 149.877 132.949 153.377ZM127.86 167.972C124.528 173.112 120.097 177.171 115.008 180.384C111.456 174.905 108.936 168.749 108.108 161.376C107.009 151.432 108.447 141.524 111.085 131.851C114.703 135.301 118.119 138.971 121.129 142.911C124.14 146.833 126.795 151.044 128.891 155.593C129.805 157.555 130.532 159.499 131.091 161.444C130.295 163.693 129.229 165.873 127.86 167.972ZM102.697 186.353C99.8213 185.356 97.032 184.24 94.36 182.871C96.1867 179.86 97.7587 176.68 98.96 173.213C100.16 169.731 100.988 166.009 101.377 161.917C102.24 152.397 101.039 142.183 97.6573 130.752C97.4213 129.975 97.2013 129.229 96.964 128.485C98.6386 126.947 100.364 125.459 102.071 123.971C103.847 125.408 105.589 126.879 107.313 128.384C107.077 129.128 106.857 129.889 106.653 130.651C103.491 142.165 102.477 152.397 103.525 161.901C104.439 170.035 107.179 176.781 110.967 182.717C108.328 184.121 105.555 185.305 102.697 186.353V186.353ZM77.1453 168.461C75.7573 166.399 74.6587 164.235 73.7973 162.001C74.3387 160.04 75.048 158.095 75.8933 156.117C79.9187 146.935 86.108 139.089 93.244 132.02C96.0507 141.643 97.708 151.517 96.7787 161.495C96.1013 168.868 93.7013 175.075 90.2666 180.62C85.1093 177.509 80.5947 173.536 77.1453 168.461V168.461ZM71.8013 154.02C71.328 150.503 71.2947 146.901 71.632 143.249C75.048 141.777 78.3787 140.001 81.576 138.092C77.416 143.3 74.1867 148.593 71.8013 154.02ZM68.9787 162.239C67.0493 170.068 67.4053 177.595 68.7413 185.068C57.3093 175.007 46.9253 162.441 45.6067 147.408C47.756 147.747 49.8693 147.899 51.9987 147.881C57.0733 147.831 62.028 146.817 66.864 145.125C66.8133 146.292 66.7787 147.441 66.7787 148.593C66.8293 153.225 67.4893 157.825 68.9787 162.205V162.239ZM72.732 102.241C74.356 103.307 75.9787 104.388 77.5853 105.521C73.7293 115.567 68.9267 127.792 67.32 140.069C62.2973 141.997 57.156 143.215 51.9653 143.265C49.784 143.283 47.62 143.096 45.5227 142.707C46.4533 126.269 60.116 112.811 72.732 102.241V102.241ZM9.94266 109.935C16.9787 113.08 24.5533 115.296 33.0427 115.211C35.5293 115.195 38.048 114.957 40.5173 114.535C46.436 113.588 52.4227 111.709 58.5773 108.887C49.5813 118.001 42.0053 128.791 40.9747 141.489C26.6507 136.587 16.9613 123.497 9.94266 109.935V109.935ZM44.6773 55.6012C46.7573 55.1786 48.9227 54.9413 51.1027 54.9253C56.2947 54.8733 61.452 56.0079 66.5253 57.8333C68.3693 70.0599 73.424 82.2026 77.4667 92.1786C75.86 93.3279 74.2707 94.4626 72.664 95.544C59.8627 85.2106 45.928 72.0546 44.6773 55.6012V55.6012ZM40.2293 83.8759C37.744 83.5039 35.224 83.3346 32.7387 83.3693C24.2493 83.4533 16.7067 85.8039 9.73999 89.0679C16.504 75.4039 25.94 62.0946 40.1613 56.9372C41.4293 69.6199 49.192 80.2399 58.3587 89.1693C52.1507 86.4639 46.148 84.7213 40.2293 83.8759ZM67.1 12.7839C65.984 20.1066 65.764 27.6999 67.776 35.5453C66.0013 41.0933 65.544 46.9106 65.9507 52.7773C61.096 51.188 56.1253 50.2586 51.052 50.3093C48.9227 50.3253 46.808 50.5119 44.6773 50.9173C45.692 35.7999 55.8547 23.0666 67.1 12.7839ZM70.7187 43.8493C73.1707 49.176 76.4693 54.3333 80.6973 59.4746C79.9013 59.0346 79.0907 58.5786 78.2947 58.1386C75.86 56.8186 73.3227 55.6013 70.7867 54.5533C70.38 50.9506 70.3293 47.332 70.7187 43.8493V43.8493ZM75.8253 29.272C79.1413 24.132 83.5533 20.0906 88.628 16.8253C92.1613 22.3053 94.664 28.4599 95.544 35.8333C96.7453 45.7426 95.2733 55.7199 92.5853 65.4266C88.948 61.9599 85.516 58.2906 82.472 54.3333C79.4627 50.3933 76.8413 46.1653 74.7773 41.6173C73.8987 39.6386 73.1707 37.6759 72.6133 35.7319C73.408 33.4999 74.4747 31.3346 75.8253 29.272ZM100.972 10.8572H100.988C103.897 11.8719 106.721 13.0213 109.411 14.3733C105.775 20.3613 103.12 27.1573 102.308 35.2746C101.361 44.7453 102.579 54.992 106.012 66.5773C106.231 67.32 106.451 68.0639 106.688 68.7919C105.031 70.3306 103.321 71.8186 101.597 73.2906C99.856 71.8532 98.1147 70.3986 96.3893 68.9106C96.644 68.1653 96.8467 67.4053 97.048 66.6613C100.245 55.0266 101.259 44.7453 100.127 35.2919C99.1627 27.1919 96.3893 20.4452 92.652 14.5266C95.324 13.1226 98.1146 11.9052 100.972 10.8572V10.8572ZM126.507 28.7639C127.911 30.8119 128.992 32.9586 129.837 35.1733C129.313 37.1186 128.637 39.0959 127.775 41.0932C123.852 50.2746 117.595 58.1719 110.408 65.2586C107.567 55.6013 105.927 45.6413 106.908 35.7146C107.635 28.3426 110.036 22.1359 113.435 16.5893C118.559 19.7519 123.073 23.6919 126.507 28.7639ZM131.884 43.2399C132.341 46.7413 132.359 50.3426 132.053 53.9786C128.688 55.4493 125.391 57.192 122.195 59.0853C126.32 53.876 129.535 48.6173 131.884 43.2399ZM134.895 12.1253C146.343 22.1866 156.743 34.7173 158.061 49.8173C155.931 49.4639 153.833 49.3119 151.703 49.3279C146.647 49.3786 141.659 50.4106 136.821 52.1012C136.872 50.9172 136.924 49.7666 136.907 48.6173C136.872 43.9333 136.197 39.3506 134.657 34.9213C136.501 27.024 136.18 19.4466 134.895 12.1253V12.1253ZM118.305 111.068C119.624 110.053 120.925 109.04 122.228 108.04C122.261 107.973 122.347 107.923 122.415 107.888L122.465 108.04C125.983 116.716 130.125 126.964 132.088 137.296C125.34 134.201 118.864 130.008 112.911 125.831C114.5 120.809 116.377 115.871 118.305 111.068V111.068ZM112.336 71.1932C118.255 66.8972 124.647 62.5866 131.325 59.3559C129.568 69.7053 125.628 80.0026 122.296 88.7292L122.211 88.9319C122.144 88.8812 122.109 88.8653 122.059 88.8146C120.74 87.8319 119.404 86.8173 118.052 85.8199C116.023 81.0866 114.043 76.1812 112.336 71.1932V71.1932ZM89.3547 108.363C88.4413 106.181 87.4947 104.016 86.5467 101.869C86.108 100.82 85.6507 99.7706 85.2107 98.7572C85.6507 97.7079 86.0747 96.6266 86.5307 95.5613C87.4107 93.4133 88.2893 91.2652 89.168 89.1012C90.0147 88.4252 90.86 87.7653 91.704 87.0893C91.772 87.0386 91.84 86.9706 91.908 86.9359C95.0707 84.4839 98.2653 81.9986 101.428 79.3946C101.496 79.3613 101.581 79.3106 101.632 79.2599L101.665 79.2426C101.835 79.3773 101.987 79.4799 102.139 79.6146C102.155 79.6319 102.172 79.6492 102.223 79.6652C105.369 82.1506 108.548 84.536 111.693 86.852C111.828 86.9533 111.98 87.0546 112.099 87.1732C112.809 87.6986 113.553 88.2386 114.28 88.7626C114.297 88.7972 114.297 88.7973 114.313 88.8146C115.227 90.9786 116.157 93.1252 117.071 95.2572C117.544 96.3212 118.019 97.4039 118.457 98.4346C118.457 98.4519 118.457 98.452 118.457 98.452C118.035 99.468 117.629 100.516 117.189 101.564C116.293 103.728 115.379 105.928 114.517 108.143C113.655 108.803 112.792 109.495 111.929 110.172C111.812 110.257 111.709 110.34 111.625 110.408C108.733 112.657 105.825 114.924 102.951 117.24C102.815 117.359 102.697 117.443 102.595 117.544C102.392 117.68 102.205 117.832 102.036 117.968C101.817 117.816 101.581 117.647 101.344 117.477C101.107 117.308 100.887 117.121 100.651 116.953C98.808 115.549 96.896 114.095 94.9346 112.607C94.6466 112.387 94.376 112.184 94.1053 111.981C93.836 111.777 93.548 111.559 93.2773 111.339C93.1253 111.237 92.956 111.101 92.7693 110.949C91.6373 110.104 90.4867 109.224 89.3547 108.363V108.363ZM81.1867 89.1186C77.6693 80.4426 73.5427 70.2119 71.5813 59.9146C78.328 63.0413 84.8067 67.2026 90.792 71.4292C89.168 76.4186 87.3093 81.3559 85.3973 86.1426C83.9933 87.2066 82.6067 88.2719 81.2707 89.3199L81.1867 89.1186ZM81.372 108.429L81.44 108.261H81.4573C82.8267 109.325 84.1973 110.324 85.6173 111.389C85.6347 111.457 85.668 111.491 85.6853 111.559C87.68 116.276 89.608 121.112 91.3 126.035C85.3973 130.328 79.0053 134.641 72.3427 137.872C73.2213 132.713 74.6427 127.523 76.2653 122.549C77.872 117.579 79.6813 112.811 81.372 108.429ZM130.972 94.952C129.331 93.904 127.707 92.8053 126.1 91.6893C128.029 86.6493 130.193 81.0692 132.088 75.2346C133.947 69.3826 135.553 63.2786 136.383 57.1572C141.405 55.2119 146.545 53.9946 151.755 53.944C153.919 53.928 156.048 54.1133 158.147 54.5026C157.2 70.9733 143.569 84.3826 130.972 94.952V94.952ZM193.725 87.2413C186.673 84.1119 179.132 81.8973 170.728 81.9826C168.208 81.9986 165.653 82.2359 163.1 82.6746C157.183 83.6906 151.212 85.5839 145.057 88.3906C154.071 79.2759 161.663 68.4706 162.696 55.7372C177.019 60.6239 186.691 73.7119 193.725 87.2413V87.2413ZM170.997 109.292C168.783 109.309 166.467 109.14 164.081 108.785C154.205 107.28 145.007 103.323 136.349 98.2839C144.905 93.0413 154.02 88.9159 163.879 87.2239C166.247 86.8012 168.563 86.6146 170.779 86.5973C182.936 86.4813 193.252 91.6719 203.652 97.6239C196.279 80.4092 184.593 57.9346 163.507 51.1199C163.269 51.0519 163.016 50.9679 162.78 50.8999C162.763 50.6479 162.747 50.3933 162.729 50.1226C161.173 28.0546 142.148 11.2613 127.217 -5.33485e-05C129.856 9.26661 131.969 18.2626 131.191 27.5306C130.904 27.0559 130.633 26.6173 130.328 26.1773C126.524 20.5626 121.587 16.2012 116.005 12.8012C119.253 8.28658 123.125 4.14395 127.217 -5.33485e-05C119.135 1.16661 109.833 2.87462 100.921 5.96928C91.976 3.04395 82.6413 1.52262 74.508 0.507954C78.7013 4.56662 82.6747 8.64127 86.0067 13.0893C80.4933 16.6053 75.6067 21.0533 71.9533 26.7359C71.648 27.1919 71.3787 27.6493 71.108 28.1226C70.1453 18.8733 72.0547 9.82529 74.508 0.507954C59.828 12.0573 41.1427 29.2213 40.0093 51.3066C39.992 51.5946 39.976 51.8479 39.976 52.1012C39.7227 52.1692 39.4853 52.2532 39.2493 52.3372C18.3133 59.5586 7.05067 82.2693 0 99.6026C5.208 96.5079 10.3493 93.6333 15.7093 91.5026C21.088 89.3719 26.684 88.0359 32.7893 87.9839C34.9867 87.9506 37.2373 88.0866 39.588 88.4413C49.4453 89.8626 58.712 93.8359 67.4053 98.9599C58.8133 104.203 49.632 108.363 39.7893 110.003C37.4387 110.373 35.2067 110.56 33.0093 110.577C20.8 110.696 10.5013 105.605 0 99.6026C3.68667 108.193 8.472 118.103 14.948 126.709C21.4253 135.335 29.6093 142.673 40.1613 146.072C40.3987 146.156 40.636 146.241 40.8893 146.309C40.9067 146.563 40.924 146.833 40.94 147.088C42.5133 169.189 61.5027 185.913 76.4347 197.227C73.8133 187.993 71.648 178.947 72.444 169.663C72.7147 170.136 73.0013 170.593 73.3227 171.049C77.128 176.647 82.084 181.043 87.6973 184.459C84.4333 188.975 80.528 193.117 76.452 197.227C84.5693 196.043 93.836 194.335 102.731 191.24C102.731 191.24 102.731 191.24 102.748 191.24C111.709 194.165 121.028 195.688 129.145 196.703C125.001 192.66 120.993 188.619 117.647 184.172C123.175 180.653 128.045 176.156 131.749 170.475C132.036 170 132.341 169.528 132.611 169.053C133.592 178.32 131.596 187.435 129.145 196.703C136.501 190.903 144.855 183.732 151.5 175.243C158.163 166.755 163.1 156.963 163.659 145.904C163.676 145.651 163.676 145.363 163.693 145.108C163.929 145.057 164.183 144.956 164.42 144.888C185.355 137.651 196.617 114.975 203.652 97.6239C193.369 103.779 183.156 109.173 170.997 109.292" fill="#FADCDD"/>
</svg>
