<svg width="122" height="150" viewBox="0 0 122 150" fill="none" xmlns="http://www.w3.org/2000/svg">
<path d="M28.6915 86.0761C36.5254 67.0861 55.275 46.3335 60.994 40.262V33.7587L59.3127 35.4594C58.1028 36.6755 36.1016 59.0759 25.8108 81.2471C24.9657 83.0712 24.2035 84.8865 23.5347 86.693C21.6965 91.6454 20.572 96.5096 20.572 101.021C20.572 132.119 55.8486 137.918 56.2046 137.971L58.8959 138.385L54.1699 133.018C46.395 131.106 25.2037 123.801 25.2037 101.021C25.2037 97.8227 25.8443 94.386 26.9564 90.8347C27.1961 90.0592 28.4985 86.7018 28.6915 86.0761" fill="#FADCDD"/>
<path d="M4.85109 90.3244C4.85109 80.8866 6.55885 70.365 13.9892 58.5215C14.5488 54.0009 15.6406 49.5684 17.4779 45.3915C3.33449 61.4647 0 78.7894 0 90.3244C0 131.486 35.7199 150 61.0838 150V145.356C37.7343 145.356 4.85109 128.287 4.85109 90.3244Z" fill="#FADCDD"/>
<path d="M60.994 5.82539V0.000625213L59.5083 1.19026C59.0888 1.52512 49.1144 9.54413 38.9787 21.1497C25.193 36.941 18.2024 51.0844 18.2024 63.2098C18.2024 65.7389 18.2984 68.2768 18.5531 70.797C18.7725 72.9648 19.1127 75.1326 19.6317 77.2651C20.0917 79.1509 20.6954 81.0103 21.4805 82.7903C22.011 84.0064 22.5855 85.1784 23.3152 86.2888C23.9955 87.3286 24.7507 88.3155 25.5711 89.2584C27.3194 91.2499 29.3717 92.8537 31.521 94.4311C32.6234 95.2418 33.7628 96.079 34.8079 96.9514C46.6946 106.953 53.3477 119.361 54.1699 132.975L58.8958 138.342L58.8888 135.733C58.8491 119.722 51.58 105.164 37.8666 93.6292C36.706 92.6511 35.5032 91.7699 34.3391 90.9151C33.3011 90.1573 32.2595 89.3906 31.2716 88.571C30.7896 88.1745 30.3208 87.7603 29.8749 87.3197C29.6546 87.0994 29.4396 86.8791 29.2316 86.6588C28.5011 85.8569 27.8569 84.9934 27.2806 84.0857C26.6911 83.1605 26.2531 82.1999 25.8107 81.2042C23.7707 76.6219 22.834 70.8675 22.834 63.2098C22.834 39.6022 53.7822 11.9498 60.994 5.82539" fill="#FADCDD"/>
<path d="M93.13 86.0761C85.2969 67.0861 66.5465 46.3335 60.8284 40.262V33.7587L62.5088 35.4594C63.7187 36.6755 85.7199 59.0759 96.0116 81.2471C96.8566 83.0712 97.6189 84.8865 98.2877 86.693C100.126 91.6454 101.249 96.5096 101.249 101.021C101.249 132.119 65.9737 137.918 65.6177 137.971L62.9265 138.385L67.6516 133.018C75.4265 131.106 96.6178 123.801 96.6178 101.021C96.6178 97.8227 95.9781 94.386 94.8651 90.8347C94.6263 90.0592 93.3238 86.7018 93.13 86.0761" fill="#FADCDD"/>
<path d="M117.144 90.3244C117.144 80.8866 115.436 70.365 108.006 58.5215C107.445 54.0009 106.355 49.5684 104.516 45.3915C118.661 61.4647 121.995 78.7894 121.995 90.3244C121.995 131.486 86.2753 150 60.9114 150V145.356C84.2608 145.356 117.144 128.287 117.144 90.3244Z" fill="#FADCDD"/>
<path d="M60.8284 5.82539V0.000625213L62.3141 1.19026C62.7327 1.52512 72.7071 9.54413 82.8428 21.1497C96.6293 36.941 103.62 51.0844 103.62 63.2098C103.62 65.7389 103.523 68.2768 103.268 70.797C103.049 72.9648 102.709 75.1326 102.191 77.2651C101.73 79.1509 101.126 81.0103 100.342 82.7903C99.8105 84.0064 99.2368 85.1784 98.5063 86.2888C97.826 87.3286 97.0716 88.3155 96.2504 89.2584C94.5029 91.2499 92.4506 92.8537 90.3004 94.4311C89.198 95.2418 88.0586 96.079 87.0144 96.9514C75.1277 106.953 68.4746 119.361 67.6516 132.975L62.9265 138.342L62.9335 135.733C62.9732 119.722 70.2423 105.164 83.9549 93.6292C85.1163 92.6511 86.3191 91.7699 87.4823 90.9151C88.5213 90.1573 89.562 89.3906 90.5507 88.571C91.0319 88.1745 91.5015 87.7603 91.9465 87.3197C92.1668 87.0994 92.3827 86.8791 92.5898 86.6588C93.3203 85.8569 93.9654 84.9934 94.5417 84.0857C95.1312 83.1605 95.5692 82.1999 96.0116 81.2042C98.0507 76.6219 98.9883 70.8675 98.9883 63.2098C98.9883 39.6022 68.0402 11.9498 60.8284 5.82539" fill="#FADCDD"/>
</svg>
