<svg width="150" height="128" viewBox="0 0 150 128" fill="none" xmlns="http://www.w3.org/2000/svg">
<path d="M75.0037 6.43085C88.1684 13.9656 98.2555 30.2175 102.309 49.2252C103.735 47.7717 105.199 46.3793 106.7 45.0759C101.746 25.3194 90.5705 8.63312 76.214 1.10959L75.0037 0.471449L73.7932 1.10959C59.4461 8.63312 48.2519 25.3344 43.3069 45.091C44.8082 46.3943 46.272 47.7877 47.6983 49.2402C51.7425 30.2325 61.8201 13.9656 75.0037 6.43085Z" fill="#FADCDD"/>
<path d="M89.3978 41.8709C89.6417 42.5596 89.8763 43.2493 90.0922 43.938C90.1954 44.2524 90.2798 44.5667 90.3924 44.8819C90.9742 46.799 91.4996 48.761 91.9312 50.7681C92.0345 51.2626 92.1565 51.7721 92.2503 52.2657C92.3254 52.641 92.4004 53.0154 92.4661 53.3898L92.7383 55.0075C92.8415 55.5911 92.9353 56.1758 93.0103 56.7603C93.1605 57.8385 93.2918 58.9016 93.4044 59.9957C94.8213 57.9585 96.3226 55.9965 97.8896 54.1236C94.962 36.3291 86.4327 20.6008 75.0038 12.6325C63.575 20.6008 55.0549 36.3291 52.1179 54.1236C53.6943 55.9965 55.1863 57.9586 56.6126 60.0098C56.9222 56.7904 57.4383 53.614 58.142 50.5279C58.2265 50.1094 58.3203 49.705 58.4235 49.2856C58.5455 48.7911 58.6675 48.2975 58.7988 47.803C59.5214 45.0612 60.3752 42.4104 61.3793 39.8488C61.5857 39.3242 61.7921 38.8007 62.008 38.2912C62.2144 37.7817 62.4396 37.2721 62.6648 36.7636C63.1433 35.6995 63.6406 34.6664 64.1567 33.6474C64.3819 33.2129 64.6071 32.7784 64.8511 32.359C65.1044 31.8955 65.3578 31.4301 65.6299 30.9665C65.902 30.5021 66.1647 30.0526 66.4556 29.6031C66.7183 29.1546 67.0092 28.7192 67.2907 28.2848C69.5803 24.8101 72.1701 21.77 75.0038 19.2834C79.0386 22.8181 82.5667 27.461 85.4474 32.8686C85.8603 33.6474 86.2732 34.4562 86.6579 35.2651C87.5024 37.0029 88.2624 38.8007 88.9474 40.6576C89.0975 41.062 89.2476 41.4664 89.3978 41.8709" fill="#FADCDD"/>
<path d="M75.0038 97.875C69.7492 89.8457 66.7184 78.9864 66.7184 67.6627C66.7184 55.9786 69.8055 44.3104 75.0038 35.6675C80.2022 44.3104 83.2892 55.9786 83.2892 67.6627C83.2892 78.9864 80.2678 89.8457 75.0038 97.875ZM88.5345 67.6627C88.5345 51.8002 83.3362 36.3421 75.0038 26.7102C66.6808 36.3421 61.4824 51.8002 61.4824 67.6627V67.9319C67.3095 78.657 70.4247 90.0859 70.7625 100.975C72.0668 102.937 73.4743 104.75 75.0038 106.383C76.5145 104.75 77.922 102.952 79.2263 101.005V100.99C79.5735 90.1159 82.7075 78.6421 88.5345 67.9019V67.6627" fill="#FADCDD"/>
<path d="M71.9634 67.6635C71.9634 74.06 73.0331 80.3806 75.0036 85.9824C76.9835 80.3806 78.0437 74.06 78.0437 67.6635C78.0437 61.0126 76.9835 54.3475 75.0036 48.3404C73.0331 54.3475 71.9634 61.0126 71.9634 67.6635Z" fill="#FADCDD"/>
<path d="M58.5169 119.4C58.3762 119.775 58.2261 120.149 58.0666 120.524C57.9258 120.869 57.7757 121.228 57.6162 121.572C57.4473 121.947 57.2877 122.306 57.1094 122.666C41.1578 121.603 24.7183 109.993 14.5843 92.4383C4.15946 74.3895 1.82307 52.715 8.4946 38.4693C8.99191 38.5152 9.48915 38.5604 9.9677 38.6345C10.4463 38.6945 10.9248 38.7695 11.394 38.8446C12.9328 39.1139 14.4905 39.4733 16.0294 39.9528C16.5173 40.087 16.9771 40.2371 17.4556 40.4023C17.8779 40.5365 18.3001 40.6866 18.713 40.8508C19.2947 41.061 19.8953 41.3002 20.4864 41.5405C20.965 41.7497 21.4435 41.9599 21.9314 42.1842C22.3724 42.3794 22.8041 42.5736 23.2357 42.7988C23.5641 42.948 23.9019 43.1131 24.2303 43.2923C24.6807 43.5175 25.1405 43.7727 25.5909 44.027C26.1727 44.3414 26.7451 44.6708 27.3081 45.0151C27.3738 45.0452 27.4301 45.0752 27.4958 45.1202C28.0775 45.4646 28.6593 45.824 29.2317 46.1993C29.3818 46.3035 29.5413 46.4085 29.6914 46.4986C30.3201 46.918 30.9206 47.3375 31.5399 47.771C32.2155 48.2514 32.8818 48.745 33.5574 49.2695C34.3549 49.8832 35.1432 50.5268 35.922 51.2015C36.4193 51.6059 36.8978 52.0254 37.3764 52.4598C38.052 53.0594 38.7275 53.6881 39.3843 54.3177C39.938 54.8563 40.4916 55.3958 41.0359 55.9644L41.2423 56.1747C41.4675 54.2276 41.7865 52.2956 42.1431 50.3927C38.8214 47.2324 35.2933 44.4615 31.6526 42.1241C31.0989 41.7656 30.536 41.4203 29.9824 41.076C28.9314 40.4464 27.8804 39.8477 26.8295 39.3082C26.3979 39.0839 25.9663 38.8588 25.5346 38.6495C21.7438 36.7625 17.8872 35.3841 14.087 34.5452C13.4583 34.411 12.8297 34.2909 12.201 34.1858C11.9007 34.1258 11.6004 34.0807 11.3001 34.0357C10.9999 33.9906 10.6997 33.9466 10.3994 33.9165C10.0147 33.8565 9.62059 33.8114 9.24526 33.7814C8.68226 33.7213 8.10986 33.6923 7.53748 33.6613C6.9088 33.6322 6.30822 33.6162 5.6983 33.6162C-3.37535 49.1794 -1.48927 74.1043 10.4744 94.8048C22.1191 114.967 41.3924 127.654 59.8963 127.489C60.7126 126.096 61.4539 124.643 62.1107 123.13C60.8627 121.962 59.6711 120.719 58.5169 119.4" fill="#FADCDD"/>
<path d="M66.0143 105.948C66.0612 105.094 66.08 104.225 66.0894 103.342V103.071C66.0894 102.368 66.0799 101.663 66.0518 100.959C66.033 100.331 66.0049 99.716 65.9579 99.0873C65.7797 96.3756 65.4043 93.6347 64.8601 90.8638C64.7756 90.4444 64.7006 90.04 64.6068 89.6206C64.0063 86.8647 63.2275 84.0938 62.261 81.3219C62.0076 80.5882 61.7355 79.8544 61.454 79.1206C60.9285 77.7572 60.3561 76.4098 59.7368 75.0464C59.5492 74.5969 59.3334 74.1625 59.1269 73.7281C58.2543 71.9161 57.3159 70.1183 56.2931 68.3505C56.2838 68.3205 56.2557 68.2754 56.2369 68.2454C55.383 66.7629 54.4822 65.3244 53.5439 63.9319C53.2436 63.4675 52.9246 63.0029 52.5962 62.5385C52.1739 61.9248 51.7423 61.3262 51.2919 60.7266C51.1605 60.5474 51.0198 60.3672 50.8884 60.1871C50.6351 59.8427 50.3817 59.5133 50.1096 59.1839C49.0024 57.7455 47.867 56.3681 46.6659 55.0497C46.3469 57.2069 46.1123 59.3782 45.981 61.5804C46.8911 62.7336 47.7731 63.9319 48.627 65.1452C49.0492 65.7138 49.434 66.2993 49.8281 66.8979C50.2316 67.4966 50.6163 68.1253 51.0104 68.7549C51.4139 69.3995 51.8079 70.0583 52.1926 70.717C52.8025 71.766 53.375 72.8291 53.9192 73.8932C54.1538 74.3567 54.3977 74.8062 54.6042 75.2707C55.5331 77.1887 56.3682 79.1057 57.1095 81.0527C57.2878 81.5172 57.4661 81.9966 57.6256 82.4611C57.7663 82.8355 57.8883 83.1948 58.0009 83.5542C58.0009 83.5692 58.0009 83.5843 58.0009 83.5843C58.4982 85.7715 59.0988 87.9128 59.8025 89.995C59.8307 90.055 59.8495 90.1151 59.8495 90.1751C59.8776 90.1901 59.8776 90.2051 59.8588 90.2192C59.9808 90.7738 60.1028 91.3133 60.206 91.8519C60.3092 92.4065 60.4125 92.946 60.5063 93.4856C60.7503 94.848 60.9285 96.2114 61.0598 97.5588C61.1068 98.0392 61.1538 98.5337 61.1819 99.0123C61.1913 99.0874 61.1913 99.1625 61.1913 99.2375C61.2382 99.641 61.2569 100.045 61.2663 100.451C61.3038 100.809 61.3132 101.185 61.3132 101.544C61.3601 102.922 61.3414 104.285 61.2851 105.632C61.2569 106.113 61.2288 106.591 61.1913 107.057C61.1162 108 61.0317 108.943 60.891 109.873C60.8253 110.411 60.7314 110.936 60.6376 111.475C60.5344 112.104 60.4124 112.734 60.2811 113.362C60.2811 113.362 60.2998 113.377 60.2811 113.392C60.9097 114.156 61.5102 114.875 62.1389 115.594C62.1389 115.609 62.1389 115.609 62.1389 115.609C62.7864 116.328 63.4151 117.032 64.0719 117.721C64.2315 117.181 64.3816 116.628 64.5223 116.073C64.6443 115.594 64.7569 115.099 64.8601 114.62C64.9821 114.081 65.0853 113.556 65.1979 113.018C65.3012 112.493 65.3856 111.954 65.4794 111.415C65.6014 110.56 65.7046 109.707 65.7891 108.824C65.8548 108.359 65.9017 107.895 65.9298 107.43C65.9767 106.936 65.9862 106.442 66.0143 105.948" fill="#FADCDD"/>
<path d="M11.5067 43.6824C7.12472 56.5938 9.81772 74.7186 18.6849 90.0715C27.205 104.826 40.8389 115.296 54.1538 117.543C54.4729 116.704 54.7356 115.85 54.9983 114.981C53.694 113.214 52.4742 111.387 51.3576 109.469C51.2919 109.888 51.2169 110.292 51.1418 110.697C51.0668 111.102 50.9823 111.507 50.8884 111.91C40.1915 108.616 29.7103 99.6725 22.7855 87.6891C15.6166 75.2722 12.6984 60.8181 14.8659 49.4934C15.4383 49.6886 15.9919 49.8988 16.5549 50.1381C16.6769 50.1831 16.7989 50.2281 16.9021 50.2722C17.3713 50.4674 17.8123 50.6617 18.2815 50.8719C18.9571 51.1871 19.6139 51.5165 20.2708 51.8609C20.7399 52.1001 21.1902 52.3553 21.65 52.6246C21.772 52.6697 21.8752 52.7448 21.9784 52.8039C22.4851 53.1041 23.0012 53.4185 23.5267 53.7329C24.0897 54.0922 24.6433 54.4666 25.2157 54.856C25.7881 55.2454 26.3417 55.6349 26.8953 56.0552C26.9235 56.0552 26.9422 56.0843 26.9704 56.0993C27.5052 56.5047 28.0307 56.9231 28.5562 57.3435C29.1098 57.777 29.654 58.2415 30.1888 58.706C30.5642 59.0354 30.9395 59.3646 31.3148 59.694C31.6526 60.0083 31.9998 60.3386 32.347 60.668C32.544 60.8331 32.7224 61.0123 32.9194 61.2075C33.398 61.6711 33.8765 62.1515 34.3363 62.6451C34.4113 62.7051 34.477 62.7802 34.5521 62.8553C34.918 63.2447 35.2934 63.6491 35.6594 64.0685C35.9127 64.3228 36.1473 64.5921 36.3725 64.8623C37.3296 65.9555 38.2585 67.0796 39.1499 68.2469C39.1874 68.2769 39.225 68.322 39.2344 68.352C39.6097 68.8615 39.985 69.37 40.3604 69.8796C40.4354 69.9696 40.5105 70.0598 40.5574 70.1499C40.5292 69.326 40.5105 68.5022 40.5105 67.6633C40.5105 65.9555 40.5574 64.2628 40.6607 62.57C32.2438 52.6697 21.6219 45.6895 11.5067 43.6824" fill="#FADCDD"/>
<path d="M48.0923 73.0851C47.351 71.8128 46.5721 70.5695 45.7651 69.3563C45.8402 73.3254 46.2062 77.2053 46.7973 80.9793V80.9943C47.7544 87.0306 49.3778 92.7976 51.5641 98.1151L51.5828 98.1301C52.9246 101.486 54.5292 104.661 56.3589 107.627C56.7436 103.508 56.5842 99.1792 55.8804 94.7606C55.8804 94.7446 55.8804 94.7306 55.8616 94.7005C55.1766 90.3711 53.9568 85.9826 52.2396 81.6681C52.2396 81.654 52.2396 81.654 52.2396 81.654C51.0855 78.748 49.6874 75.872 48.0923 73.0851" fill="#FADCDD"/>
<path d="M41.6647 95.9294C37.5923 92.4388 33.8859 87.9611 30.9959 82.957C28.0026 77.7446 25.8163 72.0376 24.6434 66.4358C28.9128 70.2548 32.7693 74.9887 35.7626 80.2011C38.6526 85.2193 40.6888 90.6419 41.6647 95.9294V95.9294ZM18.9102 56.5196C18.7601 65.642 21.6032 76.172 26.8953 85.3244C32.0186 94.1917 39.3001 101.336 47.0507 105.246C47.1257 103.808 47.1258 102.34 47.0413 100.843C44.4046 94.6561 42.5185 87.901 41.4676 80.8157C40.9703 79.8117 40.4355 78.8237 39.8631 77.8347C34.5897 68.6831 26.8954 60.9391 18.9102 56.5196" fill="#FADCDD"/>
<path d="M144.308 33.6162C143.699 33.6162 143.089 33.6322 142.469 33.6613C141.897 33.6923 141.334 33.7213 140.762 33.7814C139.748 33.8705 138.707 34.0217 137.674 34.2009C137.543 34.2159 137.412 34.2459 137.29 34.2759C137.093 34.3059 136.896 34.336 136.689 34.3961C136.342 34.4552 135.986 34.5302 135.638 34.6053C135.61 34.6203 135.563 34.6203 135.535 34.6353C134.963 34.7554 134.409 34.9046 133.856 35.0547C132.898 35.309 131.951 35.5943 130.994 35.9227C130.581 36.0578 130.158 36.2079 129.736 36.3731C127.616 37.1519 125.486 38.095 123.384 39.189C122.83 39.4734 122.276 39.7726 121.723 40.087C120.24 40.9108 118.777 41.8257 117.322 42.7988C117.031 42.9789 116.769 43.1731 116.478 43.3683C115.99 43.6976 115.492 44.0571 115.014 44.4165C114.479 44.8059 113.935 45.2103 113.409 45.6147C112.302 46.4686 111.223 47.3675 110.163 48.2964C109.769 48.6408 109.384 48.9852 108.99 49.3445C108.614 49.6739 108.248 50.0333 107.873 50.3927C108.23 52.2956 108.539 54.2276 108.765 56.1747C108.83 56.0996 108.887 56.0395 108.98 55.9644C109.515 55.3958 110.069 54.8563 110.622 54.3177C111.251 53.7181 111.88 53.1195 112.527 52.5499C113.175 51.9663 113.813 51.4117 114.479 50.8571C115.061 50.3626 115.661 49.8831 116.271 49.4036C116.328 49.3595 116.393 49.3145 116.45 49.2695C117.125 48.745 117.782 48.2514 118.476 47.771C118.964 47.4126 119.48 47.0672 119.987 46.7228C120.193 46.5886 120.39 46.4536 120.597 46.3184C121.394 45.7948 122.201 45.2853 123.027 44.8209C123.478 44.5516 123.909 44.2964 124.36 44.0571C124.829 43.7869 125.307 43.5325 125.786 43.2923C126.114 43.1131 126.443 42.948 126.771 42.7988C127.203 42.5736 127.644 42.3794 128.075 42.1842C128.573 41.9599 129.051 41.7497 129.53 41.5405C130.112 41.3002 130.712 41.061 131.294 40.8508C131.716 40.6866 132.138 40.5365 132.551 40.4023C133.03 40.2371 133.499 40.087 133.978 39.9528C135.516 39.4733 137.074 39.1139 138.622 38.8446C139.082 38.7695 139.561 38.6945 140.049 38.6345C140.527 38.5604 141.015 38.5152 141.512 38.4693C148.174 52.715 145.838 74.3895 135.432 92.4383C125.289 109.993 108.84 121.603 92.888 122.666C92.7097 122.306 92.5503 121.947 92.3814 121.572C92.2125 121.228 92.0623 120.869 91.9309 120.524C91.762 120.149 91.6213 119.775 91.4805 119.4C90.3451 120.719 89.1441 121.962 87.9055 123.13C88.5436 124.643 89.2942 126.096 90.1199 127.489C108.614 127.654 127.897 114.967 139.532 94.8048C151.487 74.1043 153.373 49.1794 144.308 33.6162Z" fill="#FADCDD"/>
<path d="M89.7166 113.378C89.5758 112.748 89.4632 112.105 89.3506 111.46C89.2474 110.936 89.1724 110.412 89.0973 109.873C89.0692 109.663 89.0409 109.439 89.0222 109.213C88.9471 108.689 88.9096 108.15 88.8627 107.611C88.797 106.952 88.7595 106.292 88.722 105.633C88.6469 104.285 88.6468 102.923 88.6938 101.545C88.6938 101.199 88.7125 100.841 88.7407 100.48C88.7594 100.046 88.7689 99.6115 88.8158 99.178C88.797 99.163 88.8158 99.133 88.8158 99.103C88.8627 98.5484 88.9096 97.9948 88.9659 97.4403C89.0879 96.1369 89.2662 94.8185 89.5008 93.5011C89.5946 92.9616 89.6978 92.4071 89.8011 91.8685C89.8949 91.3289 90.0168 90.7743 90.1482 90.2357C90.1294 90.2057 90.1482 90.1907 90.167 90.1757V90.1607V90.1457C90.167 90.1307 90.1764 90.1306 90.1764 90.1306C90.2515 89.9355 90.3171 89.7413 90.3734 89.5311C90.5423 89.0366 90.7018 88.527 90.8519 88.0035C91.124 87.1045 91.3774 86.1906 91.6026 85.2626C91.7339 84.7381 91.8559 84.2136 91.9779 83.675C91.9779 83.6449 91.9779 83.6149 91.9967 83.5999C92.0999 83.3006 92.1843 83.0003 92.3063 82.701C92.5128 82.1014 92.738 81.4877 92.9632 80.8881C92.9819 80.844 93.0101 80.7839 93.0289 80.7239C93.1884 80.3045 93.3667 79.8701 93.5544 79.4506C93.8453 78.6718 94.1924 77.8779 94.549 77.0991C94.7929 76.5596 95.0463 76.02 95.2996 75.4814C95.553 74.9569 95.8251 74.4174 96.0972 73.8938C96.3693 73.3693 96.632 72.8598 96.9041 72.3503C97.2044 71.8117 97.5047 71.2571 97.8238 70.7176C98.2085 70.0438 98.5932 69.3851 99.006 68.7405C99.4377 68.0367 99.8881 67.348 100.338 66.6584C100.667 66.1639 100.995 65.6703 101.343 65.1758C101.596 64.8315 101.83 64.5011 102.074 64.1568C102.384 63.7223 102.703 63.2888 103.032 62.8694C103.36 62.435 103.707 62.0005 104.035 61.566C103.895 59.3788 103.66 57.2075 103.341 55.0503C101.727 56.8481 100.188 58.7351 98.7152 60.7122C98.4337 61.0866 98.1615 61.4609 97.9082 61.8353C97.3358 62.6141 96.7822 63.408 96.2568 64.2318C95.8157 64.9065 95.3747 65.5802 94.9431 66.284C94.5396 66.9286 94.1455 67.5723 93.7702 68.2319V68.246C93.7608 68.261 93.742 68.276 93.7326 68.306C93.7138 68.3211 93.7139 68.3361 93.6951 68.3511C92.6817 70.1189 91.734 71.9167 90.8707 73.7287C90.6549 74.1631 90.4485 74.5975 90.2514 75.047C89.6415 76.3944 89.0691 77.7578 88.5437 79.1212C88.2622 79.855 87.9901 80.5888 87.7367 81.3225C87.352 82.4466 86.9861 83.5699 86.6577 84.6931C86.4325 85.4719 86.2072 86.2507 86.0102 87.0295C85.8225 87.7792 85.6442 88.513 85.4753 89.2467C85.4659 89.3068 85.4472 89.3519 85.4284 89.412C84.7434 92.5122 84.293 95.6124 84.0678 98.6535C84.0209 99.3422 83.974 100.046 83.9646 100.751C83.9177 101.62 83.8989 102.488 83.8989 103.342C83.8989 103.356 83.8989 103.372 83.8989 103.372C83.9177 104.195 83.9364 105.005 83.974 105.813C83.9927 106.187 84.0115 106.548 84.0397 106.907C84.096 107.85 84.1898 108.764 84.293 109.678C84.3681 110.263 84.4432 110.846 84.5276 111.431C84.6215 111.969 84.7152 112.509 84.7997 113.033C84.9029 113.572 85.0155 114.097 85.1281 114.621C85.3533 115.669 85.6254 116.718 85.9257 117.736C86.5825 117.048 87.23 116.344 87.8587 115.609C88.4874 114.89 89.0973 114.157 89.7166 113.393C89.7166 113.378 89.7166 113.378 89.7166 113.378" fill="#FADCDD"/>
<path d="M131.322 90.0715C140.18 74.7186 142.892 56.5938 138.501 43.6824C128.404 45.6744 117.773 52.6697 109.356 62.5559C109.459 64.2477 109.506 65.9555 109.506 67.6633C109.506 68.5022 109.487 69.326 109.459 70.1499C109.506 70.0598 109.581 69.9696 109.656 69.8796C110.022 69.37 110.398 68.8615 110.773 68.352C110.792 68.322 110.82 68.2769 110.867 68.2469C111.749 67.0796 112.678 65.9555 113.635 64.8623C113.86 64.5921 114.104 64.3228 114.357 64.0685C114.714 63.6491 115.089 63.2447 115.465 62.8553C115.521 62.7802 115.596 62.7051 115.671 62.6451C116.14 62.1515 116.619 61.6711 117.097 61.2075C117.275 61.0123 117.473 60.8331 117.67 60.668C118.036 60.2936 118.448 59.9192 118.833 59.5749C119.265 59.1695 119.706 58.7951 120.137 58.4217C120.569 58.0463 121.01 57.6879 121.442 57.3435C121.995 56.8931 122.568 56.4586 123.131 56.0392C123.675 55.6198 124.229 55.2304 124.782 54.856C125.345 54.4666 125.908 54.0922 126.49 53.7329C126.997 53.4185 127.503 53.1041 128.019 52.8039C129.812 51.7558 131.623 50.8718 133.452 50.1381C134.006 49.8988 134.578 49.6886 135.151 49.4934C137.299 60.8181 134.381 75.2722 127.203 87.6891C120.306 99.6725 109.816 108.616 99.1094 111.91C98.9686 111.342 98.8655 110.773 98.7623 110.203C98.7341 109.978 98.6871 109.739 98.6402 109.514V109.469C97.5142 111.387 96.3226 113.229 95.0183 114.981C95.2717 115.85 95.5438 116.704 95.8535 117.543C109.168 115.296 122.802 104.826 131.322 90.0715" fill="#FADCDD"/>
<path d="M97.3825 100.587C97.7391 99.7778 98.0863 98.969 98.4335 98.1451C98.4335 98.1151 98.4335 98.1011 98.4428 98.1011C100.648 92.7685 102.252 87.0016 103.21 80.9493V80.9352C103.829 77.1744 104.167 73.2954 104.242 69.3413C103.435 70.5545 102.656 71.8128 101.924 73.0851C100.319 75.872 98.9308 78.748 97.7767 81.654C97.7767 81.654 97.7767 81.654 97.7767 81.6681C96.0501 85.9826 94.8397 90.3711 94.1453 94.7005C94.1359 94.7306 94.1359 94.7446 94.1359 94.7606C93.4321 99.1792 93.2633 103.508 93.6574 107.627C94.0702 106.953 94.4737 106.264 94.8678 105.56C94.9617 105.396 95.0649 105.215 95.1493 105.035C95.5247 104.362 95.8906 103.688 96.2284 102.998C96.6225 102.204 97.0072 101.395 97.3825 100.587" fill="#FADCDD"/>
<path d="M114.235 80.2011C117.247 74.9887 121.094 70.2548 125.345 66.4358C124.2 72.0376 122.014 77.7446 119.002 82.957C116.112 87.9611 112.424 92.4388 108.333 95.9294C109.318 90.6419 111.345 85.2193 114.235 80.2011V80.2011ZM108.558 80.7557C107.498 87.8701 105.603 94.6411 102.975 100.858C102.956 100.872 102.956 100.872 102.975 100.887C102.956 100.903 102.956 100.917 102.956 100.917C102.881 102.385 102.881 103.838 102.956 105.246C110.698 101.336 117.979 94.1917 123.102 85.3244C128.395 76.172 131.247 65.642 131.088 56.5196C123.102 60.9391 115.417 68.6831 110.135 77.8347C109.581 78.7927 109.056 79.7667 108.558 80.7407C108.558 80.7557 108.558 80.7557 108.558 80.7557" fill="#FADCDD"/>
</svg>
