<svg width="150" height="136" viewBox="0 0 150 136" fill="none" xmlns="http://www.w3.org/2000/svg">
<path d="M140.341 84.716C138.777 87.6281 137.021 90.4768 135.032 93.0995C134.751 90.9833 134.272 88.8942 133.567 86.8593C135.909 86.3348 138.162 85.5933 140.341 84.716ZM130.564 104.205C130.167 107.47 129.461 110.735 128.584 113.927C127.607 111.784 126.503 109.695 125.165 107.687C124.342 106.43 123.42 105.191 122.407 104.015C120.571 101.872 118.41 99.8552 115.841 98.0374C112.676 95.8036 109.158 93.8954 105.215 92.2675C104.003 90.097 102.691 87.9898 101.326 85.9641C103.704 85.4395 106.11 84.8426 108.488 84.1191C112.459 85.6837 116.32 86.7508 120.164 87.3296C122.108 87.6281 124.053 87.7728 125.97 87.7547C127.002 87.7456 128.014 87.6914 129.027 87.6009H129.037C130.257 90.8838 130.826 94.3476 130.89 97.8837C130.899 98.2092 130.899 98.5258 130.899 98.8513C130.899 100.633 130.781 102.415 130.564 104.205V104.205ZM112.377 106.394C111.817 106.403 111.238 106.385 110.668 106.349C110.171 103.771 109.367 101.23 108.344 98.7518C110.026 99.6381 111.654 100.642 113.227 101.745C114.964 102.966 116.492 104.296 117.831 105.697C116.067 106.132 114.24 106.376 112.377 106.394V106.394ZM114.602 128.18C111.473 129.121 108.208 129.889 104.916 130.351C104.319 130.432 103.722 130.504 103.135 130.559C102.529 130.622 101.932 130.676 101.335 130.712C100.575 130.758 99.8155 130.794 99.0558 130.803L98.6036 130.812C94.8686 130.803 91.3958 130.233 88.2577 129.139C88.33 128.225 88.3662 127.303 88.3662 126.362C88.3662 124.4 88.2033 122.383 87.8416 120.294C87.1814 116.468 86.0509 112.625 84.405 108.691V108.682C85.0833 106.303 85.644 103.889 86.1053 101.483C88.1763 102.803 90.2925 104.079 92.4901 105.245C94.1822 109.161 96.1708 112.652 98.468 115.772C100.323 118.304 102.384 120.421 104.563 122.202C105.766 123.206 107.014 124.092 108.289 124.897C110.324 126.19 112.441 127.258 114.602 128.18V128.18ZM82.7319 84.5532C81.936 85.2224 81.0498 85.7831 80.1002 86.2263C79.8379 86.3529 79.5667 86.4615 79.2962 86.57C78.3367 86.9317 77.3148 87.194 76.2476 87.3025C75.8768 87.3477 75.497 87.3658 75.1172 87.3748C74.7192 87.3748 74.3303 87.3567 73.9505 87.3296C72.8924 87.2392 71.8795 86.995 70.9118 86.6513C70.6315 86.5428 70.3511 86.4343 70.0798 86.3167C69.1302 85.8826 68.2348 85.3491 67.439 84.6979C66.8331 84.2096 66.2814 83.6669 65.784 83.0791C65.1329 82.2923 64.5812 81.4241 64.138 80.4926C64.0114 80.2122 63.8857 79.9228 63.7763 79.6335C63.4145 78.6748 63.1613 77.6709 63.0528 76.6128C63.0076 76.242 62.9895 75.8622 62.9814 75.4733C62.9814 75.0845 62.9986 74.7046 63.0257 74.3248C63.1161 73.2757 63.3513 72.2719 63.6958 71.3132C63.8035 71.0238 63.912 70.7253 64.0476 70.445C64.4636 69.4954 64.9972 68.6182 65.6393 67.8223C66.1276 67.2164 66.6703 66.6647 67.2581 66.1673C68.0449 65.5071 68.9222 64.9555 69.8627 64.5123C70.1431 64.3767 70.4325 64.2501 70.7309 64.1416C71.6805 63.7798 72.6844 63.5266 73.7244 63.4181C74.1042 63.3729 74.4931 63.3457 74.882 63.3457C75.2618 63.3366 75.6326 63.3638 76.0124 63.3909C77.0615 63.4813 78.0744 63.7165 79.0421 64.0602C79.3315 64.1596 79.6119 64.2772 79.8922 64.3948C80.8599 64.8289 81.7552 65.3715 82.5601 66.0317C83.148 66.5019 83.6905 67.0355 84.1789 67.6143C84.8572 68.4102 85.4089 69.2965 85.8611 70.2551C85.9877 70.5174 86.0962 70.7887 86.2047 71.069C86.5755 72.0277 86.8287 73.0316 86.9372 74.0897C86.9833 74.4695 87.0096 74.8493 87.0096 75.2382C87.0096 75.627 86.9915 76.0069 86.9644 76.3777C86.874 77.4358 86.6388 78.4487 86.2951 79.4074C86.1957 79.6968 86.079 79.9771 85.9605 80.2574C85.5264 81.216 84.9838 82.1114 84.3326 82.9253C83.8533 83.5132 83.3197 84.0558 82.7319 84.5532V84.5532ZM78.3277 122.492C79.7928 120.303 81.0136 117.934 82.0536 115.474C82.6053 117.301 83.0575 119.163 83.374 121.063C83.7358 123.143 83.8714 125.141 83.8352 127.077C81.7371 125.847 79.9103 124.291 78.3277 122.492V122.492ZM75.4165 118.567C73.5978 115.664 72.187 112.426 71.0565 109.016V109.007C70.333 106.837 69.7181 104.612 69.1935 102.378C68.9041 101.203 68.6599 100.045 68.4248 98.8785C68.0721 97.2054 67.7736 95.5504 67.5032 93.9406C67.3576 93.0815 67.2129 92.2222 67.0682 91.3812C66.9507 90.6396 66.8249 89.8981 66.7155 89.1746C66.8783 89.1836 67.032 89.2107 67.1948 89.2288C67.6741 89.8619 68.1534 90.4859 68.6418 91.128C68.9493 91.544 69.2658 91.9691 69.5824 92.4032C70.4596 93.6151 71.3468 94.8359 72.196 96.093C72.3045 96.2468 72.404 96.3914 72.5035 96.5542C73.4621 97.9289 74.3665 99.3487 75.2437 100.778C76.0947 99.3306 76.971 97.9018 77.8935 96.5C77.993 96.3462 78.0834 96.1924 78.1829 96.0387C79.024 94.7726 79.8741 93.5336 80.7423 92.3037C81.0407 91.8696 81.3483 91.4355 81.6557 91.0104C82.117 90.3683 82.5963 89.7171 83.0665 89.075C83.2293 89.0479 83.3741 89.0389 83.5278 89.0118C83.4283 89.7443 83.3198 90.4859 83.2113 91.2455C83.0937 92.0866 82.967 92.9277 82.8404 93.7869C82.5963 95.4057 82.325 97.0697 82.0175 98.7428C81.8004 99.9094 81.5744 101.094 81.3121 102.27C80.8427 104.522 80.2721 106.756 79.5757 108.935C79.5757 108.935 79.5756 108.935 79.5847 108.935C78.5266 112.354 77.1791 115.627 75.4165 118.567V118.567ZM67.1587 127.24C67.0773 125.304 67.1767 123.306 67.4932 121.216C67.7826 119.308 68.1896 117.445 68.7141 115.609H68.7232C69.8003 118.06 71.0655 120.384 72.5758 122.537C71.0384 124.364 69.2387 125.964 67.1587 127.24V127.24ZM66.2362 108.854V108.863C64.6626 112.833 63.5955 116.704 63.0176 120.538C62.5464 123.631 62.4921 126.588 62.7725 129.392C59.6614 130.541 56.1986 131.174 52.4626 131.255L52.0105 131.264C50.057 131.282 48.1035 131.155 46.1411 130.92H46.132C42.8311 130.522 39.5573 129.808 36.4101 128.931C38.5353 127.972 40.6344 126.851 42.6502 125.521C43.9073 124.68 45.1462 123.767 46.3309 122.736C48.4653 120.927 50.464 118.775 52.2818 116.242C54.5517 113.086 56.4871 109.55 58.124 105.571C60.2764 104.359 62.3655 103.048 64.3822 101.691C64.9068 104.088 65.5045 106.475 66.2452 108.854H66.2362ZM39.9199 107.045C39.3673 107.09 38.7976 107.117 38.2459 107.117C36.3919 107.135 34.5651 106.936 32.7926 106.529C34.0949 105.1 35.578 103.744 37.2692 102.487C38.8256 101.329 40.4345 100.28 42.1076 99.3578C41.1399 101.872 40.3721 104.44 39.9199 107.045V107.045ZM28.1712 104.938C27.1764 106.15 26.2811 107.398 25.4762 108.673C24.1829 110.708 23.1067 112.824 22.1752 114.985C21.2256 111.793 20.4478 108.528 19.9866 105.272C19.6972 103.156 19.5254 101.049 19.5435 98.9689V98.9599C19.5345 95.3967 20.05 91.9239 21.2166 88.6048C22.2385 88.6862 23.2785 88.7133 24.3457 88.7043C26.2177 88.6862 28.1351 88.5234 30.0342 88.2069C33.8778 87.5738 37.7484 86.4524 41.7186 84.7793H41.7286C44.0881 85.4576 46.4766 86.0093 48.8542 86.4796C47.5519 88.5144 46.2866 90.6306 45.1281 92.8192C41.176 94.5194 37.6762 96.5271 34.5561 98.8513C32.0428 100.732 29.9437 102.776 28.1712 104.938V104.938ZM27.8546 78.702C30.0523 80.167 32.4217 81.406 34.9087 82.437C33.0729 82.9796 31.2008 83.4318 29.3016 83.7483C27.5833 84.0197 25.9193 84.1643 24.3005 84.1824C23.9568 84.1824 23.6222 84.1824 23.2876 84.1643C24.5175 82.0843 26.073 80.2665 27.8546 78.702V78.702ZM23.1248 67.5601C23.4594 67.533 23.794 67.5239 24.1377 67.5239C25.7565 67.5058 27.4206 67.6143 29.1389 67.8675C31.0471 68.1479 32.9282 68.5549 34.7822 69.0704C32.3223 70.1466 29.9718 71.4308 27.8094 72.9501C26.0007 71.4127 24.409 69.6311 23.1248 67.5601V67.5601ZM20.9724 63.1648C19.7334 59.8638 19.1555 56.4001 19.0913 52.8459C19.0371 50.7569 19.1637 48.6497 19.4169 46.5335C19.8148 43.2687 20.5202 39.9767 21.4165 36.7752C22.3742 38.9005 23.5047 40.9987 24.8341 43.0154C25.6661 44.2725 26.5704 45.5025 27.6104 46.6962V46.7052C29.4192 48.8305 31.5626 50.8292 34.1039 52.647C37.2692 54.9169 40.8143 56.8614 44.7935 58.4893C45.9873 60.6417 47.2987 62.7217 48.6462 64.7474C46.2767 65.272 43.8892 65.8599 41.5387 66.5834C37.5315 64.9917 33.6336 63.9426 29.79 63.3819C27.8818 63.1015 25.9736 62.9749 24.0934 62.993C23.0253 63.0021 21.9853 63.0563 20.9724 63.1648V63.1648ZM37.631 44.3177C38.1917 44.3087 38.7523 44.3267 39.313 44.3539C39.8014 46.9585 40.6154 49.5088 41.6373 51.9958C39.9561 51.1005 38.3092 50.0966 36.7546 48.9662C35.0444 47.7362 33.5341 46.4249 32.2047 45.0231C33.9682 44.5709 35.777 44.3358 37.631 44.3177V44.3177ZM43.3375 40.2842C43.1385 37.9057 43.2742 35.5273 43.8349 33.1669C45.2457 34.4692 46.6023 35.9523 47.8594 37.6344C49.017 39.1899 50.066 40.8087 50.9984 42.4728C48.4834 41.4961 45.933 40.7364 43.3375 40.2842V40.2842ZM62.3031 58.7425C62.2389 59.1675 62.1756 59.6016 62.1213 60.0357C62.0037 60.8406 61.8871 61.6274 61.7777 62.4052C60.9999 62.5318 60.195 62.6584 59.3811 62.785C58.9741 62.8574 58.549 62.9207 58.133 62.993C56.6136 63.2462 55.0681 63.4994 53.4854 63.7888C52.8153 62.8302 52.1651 61.8535 51.5131 60.8496H51.5221C50.265 58.9233 49.0802 56.9337 48.0221 54.9079H48.0131C46.331 51.7064 44.9654 48.3965 44.1243 45.0593C47.4615 45.819 50.7723 47.1212 53.991 48.7401C56.0439 49.7801 58.0435 50.9196 60.0141 52.1496C61.027 52.7736 62.0309 53.4157 63.0176 54.0669C62.7453 55.6585 62.5102 57.2231 62.3031 58.7425V58.7425ZM53.8915 78.2588C54.0272 78.3492 54.181 78.4396 54.3166 78.5391C55.5827 79.3711 56.8217 80.2303 58.0697 81.0895C58.5038 81.3969 58.9198 81.7135 59.3539 82.0119C59.996 82.4822 60.6291 82.9434 61.2712 83.4227C61.2983 83.5855 61.3164 83.7393 61.3435 83.893C60.62 83.7935 59.8785 83.6941 59.1378 83.5946V83.5765C58.2958 83.4589 57.4367 83.3323 56.5594 83.2057C54.9406 82.9615 53.2675 82.6811 51.6035 82.3827C50.4459 82.1656 49.2883 81.9396 48.1307 81.6954C45.8969 81.2161 43.645 80.6464 41.4654 79.9681H41.4564C38.0198 78.9009 34.7279 77.5533 31.7805 75.7808C34.6917 73.9539 37.9655 72.5431 41.375 71.4127C43.5545 70.6711 45.7883 70.0651 48.0221 69.5406C49.1797 69.2693 50.3283 69.0252 51.4868 68.7991C53.1409 68.4554 54.7959 68.1569 56.4147 67.8856C57.2829 67.7319 58.1421 67.5872 58.9741 67.4606V67.4425C59.7247 67.325 60.4572 67.2164 61.1807 67.0988C61.1626 67.2526 61.1355 67.4154 61.1174 67.5691V67.5872C60.4843 68.0665 59.8604 68.5368 59.2273 69.0161C58.8023 69.3236 58.3863 69.6492 57.9612 69.9567C56.7403 70.852 55.5203 71.7383 54.2714 72.5884C54.1267 72.6878 53.991 72.7783 53.8463 72.8778C52.4626 73.8274 51.0608 74.7318 49.6319 75.609C51.0789 76.4591 52.4898 77.3363 53.8915 78.2588V78.2588ZM51.6306 108.709C50.7353 110.391 49.7314 112.037 48.601 113.602C47.371 115.311 46.0506 116.812 44.6578 118.142C44.1876 116.297 43.9796 114.443 43.9796 112.58C43.9796 112.064 43.9977 111.549 44.0258 111.033C46.6114 110.536 49.1526 109.731 51.6306 108.709ZM44.7212 106.249C45.4989 102.894 46.8103 99.5658 48.4291 96.3281C49.4519 94.2842 50.5906 92.2765 51.7934 90.3321C52.4174 89.3193 53.0694 88.3244 53.7115 87.3477C55.3023 87.6009 56.8669 87.8361 58.3772 88.0441C58.8113 88.1074 59.2364 88.1798 59.6614 88.225C60.4663 88.3425 61.2621 88.4601 62.0399 88.5686C62.1575 89.3373 62.2841 90.1242 62.4197 90.9381C62.483 91.3631 62.5554 91.7972 62.6277 92.2313C62.8629 93.7326 63.1342 95.2972 63.4145 96.8617C62.4469 97.54 61.4701 98.2092 60.4843 98.8422C58.5309 100.108 56.5413 101.302 54.5155 102.378C51.3231 104.061 48.0493 105.426 44.7212 106.249V106.249ZM35.37 22.5405C38.5082 21.609 41.773 20.8221 45.0739 20.3609C47.0183 20.1077 48.9808 19.9359 50.9252 19.9178H51.3774C55.1305 19.9269 58.6123 20.4785 61.7415 21.5818C61.6782 22.4771 61.642 23.3906 61.642 24.313C61.642 26.2665 61.7958 28.2923 62.1394 30.3904C62.7725 34.243 63.9029 38.1137 65.5669 42.0929C65.5669 42.0929 65.5669 42.093 65.5669 42.102C64.8977 44.4624 64.346 46.8499 63.8757 49.2375C63.8757 49.2375 63.8758 49.2375 63.8667 49.2375C61.8319 47.9171 59.7157 46.651 57.5361 45.4934C55.8269 41.5323 53.8192 38.0414 51.4949 34.9304C49.6229 32.4253 47.588 30.3271 45.4176 28.5546C44.2057 27.5507 42.9667 26.6463 41.6915 25.8415C39.6476 24.5482 37.5315 23.472 35.37 22.5405V22.5405ZM64.4003 10.1867C63.5683 12.3843 62.881 14.6634 62.3926 17.0328C60.3397 16.3636 58.2334 15.9205 56.1072 15.6673C58.6937 13.6324 61.5064 11.8146 64.4003 10.1867ZM66.191 23.671C68.2801 24.8919 70.0888 26.4474 71.6624 28.238C70.1883 30.4266 68.9674 32.8051 67.9274 35.283C67.3757 33.4381 66.9235 31.5661 66.6161 29.6578C66.2724 27.5868 66.1467 25.5973 66.191 23.671V23.671ZM74.5745 32.1539C76.3923 35.0751 77.8212 38.3308 78.9335 41.7493C79.1777 42.4637 79.3857 43.1963 79.6028 43.9198C79.8018 44.5709 79.9917 45.2221 80.1644 45.8733C80.3905 46.7053 80.6066 47.5373 80.8056 48.3783C81.0769 49.5359 81.3211 50.6845 81.5653 51.833H81.5572C81.8909 53.4971 82.2074 55.1611 82.4697 56.78C82.6234 57.6391 82.7681 58.4711 82.9038 59.3122C83.0213 60.0628 83.1398 60.8135 83.2655 61.546C83.1036 61.5279 82.949 61.5008 82.7862 61.4827C82.2978 60.8587 81.8095 60.2256 81.3392 59.5835C81.0227 59.1675 80.7152 58.7424 80.3905 58.3264C79.5033 57.0965 78.6261 55.8756 77.776 54.6276C77.6674 54.4919 77.577 54.3562 77.4875 54.2115C76.547 52.8278 75.6235 51.4171 74.7463 49.9882C73.9052 51.4352 73.0099 52.8641 72.0965 54.2658C72.0061 54.4105 71.9066 54.5462 71.8071 54.6909C70.9751 55.957 70.134 57.205 69.2749 58.4349C68.9583 58.869 68.6418 59.2851 68.3434 59.7192C67.8731 60.3613 67.4209 61.0034 66.9506 61.6365H66.9326C66.7698 61.6636 66.6069 61.6907 66.4532 61.6998C66.5436 60.9853 66.6522 60.2527 66.7607 59.5021C66.8873 58.652 67.014 57.7838 67.1406 56.9156C67.3848 55.3058 67.656 53.6509 67.9635 51.9778C68.1815 50.8202 68.4076 49.6626 68.6509 48.496C69.1393 46.2531 69.7089 44.0192 70.3872 41.8216C71.4544 38.3941 72.802 35.1112 74.5745 32.1539V32.1539ZM82.7862 23.4991H82.7952C82.8133 23.9422 82.8223 24.3945 82.8223 24.8466C82.8223 26.3479 82.7139 27.9034 82.4878 29.4951C82.2074 31.4123 81.8004 33.3025 81.2849 35.1474C80.2006 32.6784 78.9155 30.3361 77.4142 28.1656C78.9426 26.3478 80.7333 24.7652 82.7862 23.4991V23.4991ZM83.7629 41.9031C85.3546 37.8967 86.4128 33.9988 86.9644 30.1552C87.4076 27.0623 87.4527 24.1321 87.1814 21.3376H87.1905C90.3106 20.171 93.7743 19.5379 97.5184 19.4565L97.9705 19.4475C98.2961 19.4475 98.6308 19.4746 98.9663 19.4746C99.9874 19.4927 101.018 19.547 102.04 19.6284C102.637 19.6736 103.234 19.7098 103.831 19.7822C107.141 20.1891 110.415 20.8945 113.562 21.7718C111.419 22.7395 109.32 23.8518 107.322 25.1812C106.065 26.0042 104.826 26.9266 103.65 27.9576C101.498 29.7754 99.4809 31.9369 97.6721 34.5053C95.4293 37.6706 93.5211 41.1886 91.9023 45.1317V45.1498C89.7318 46.3436 87.6336 47.6549 85.5988 49.0205C85.0923 46.651 84.4864 44.2544 83.7629 41.9121V41.9031ZM92.7072 15.3055C90.5909 15.604 88.5018 16.0832 86.4489 16.7886C85.9334 14.4282 85.1918 12.1673 84.3236 9.99684C87.2357 11.5614 90.0845 13.3249 92.7072 15.3055ZM110.062 43.6756C110.623 43.6304 111.202 43.6033 111.771 43.5942C113.626 43.5762 115.461 43.7841 117.234 44.1911C115.923 45.629 114.421 46.9765 112.712 48.2427C111.156 49.3731 109.556 50.3951 107.892 51.3356C108.868 48.8305 109.61 46.2802 110.062 43.6756ZM98.3685 42.0025C99.2638 40.3204 100.268 38.6925 101.371 37.1189C102.584 35.3825 103.904 33.8632 105.323 32.5247C105.793 34.3787 106.019 36.2417 106.019 38.1047C106.019 38.6292 106.001 39.1538 105.965 39.6783C103.388 40.1757 100.856 40.9806 98.3685 42.0025V42.0025ZM105.269 44.4715C104.5 47.8177 103.189 51.1276 101.597 54.3382C100.575 56.382 99.4267 58.3988 98.2238 60.3522H98.2057C97.5817 61.3742 96.9315 62.3871 96.2794 63.3819H96.2703C94.6967 63.1106 93.1412 62.8754 91.6309 62.6674C91.1697 62.6041 90.7085 62.5408 90.2563 62.4775C89.4785 62.3599 88.7098 62.2514 87.9501 62.1429C87.8235 61.3922 87.7059 60.6326 87.5703 59.8367C87.4979 59.3845 87.4256 58.9324 87.3533 58.4712C87.1181 56.9699 86.8468 55.4234 86.5665 53.8498C87.5432 53.1624 88.538 52.4933 89.5509 51.8421C89.5509 51.8421 89.5508 51.8421 89.5599 51.8421C91.4862 50.576 93.4849 49.3912 95.5107 48.3241C98.6851 46.651 101.959 45.2854 105.269 44.4715V44.4715ZM106.644 110.418C106.852 112.806 106.716 115.22 106.146 117.599C104.708 116.279 103.361 114.786 102.113 113.086C100.965 111.54 99.924 109.912 99.0016 108.239C101.507 109.206 104.057 109.966 106.644 110.418ZM96.0352 101.999V101.99C93.9823 100.968 91.9655 99.8099 90.0121 98.589C88.982 97.965 87.9683 97.3049 86.9834 96.6356C87.2357 95.0439 87.4708 93.5065 87.6788 91.9962C87.7421 91.535 87.8055 91.0828 87.8688 90.6216C87.9864 89.8438 88.0948 89.0751 88.2033 88.3154C88.954 88.1888 89.7227 88.0712 90.5095 87.9356C90.9617 87.8632 91.4139 87.7908 91.8751 87.7185C93.3764 87.4833 94.9228 87.2211 96.4964 86.9226C97.1747 87.8994 97.844 88.8942 98.4952 89.9071V89.9252C99.7341 91.8605 100.928 93.8411 101.986 95.8669C103.65 99.0413 105.016 102.324 105.848 105.643C102.529 104.902 99.2458 103.608 96.0352 101.999V101.999ZM121.837 45.7828C122.832 44.5891 123.727 43.332 124.532 42.0568C125.825 40.031 126.892 37.9238 127.824 35.7533C128.764 38.9186 129.533 42.1744 129.994 45.4301C130.293 47.5463 130.456 49.6535 130.447 51.7426V51.7607C130.447 55.3058 129.949 58.7695 128.783 62.0795C127.77 62.0072 126.748 61.9711 125.717 61.9801C123.809 61.9982 121.864 62.179 119.929 62.5046C116.103 63.1648 112.26 64.2953 108.326 65.9593H108.308C105.929 65.263 103.523 64.7113 101.127 64.241C100.232 65.6428 99.309 67.0084 98.3956 68.3288C99.5623 68.5459 100.729 68.7719 101.896 69.0342C104.13 69.5226 106.381 70.0833 108.561 70.7706H108.57C111.997 71.8287 115.262 73.1852 118.201 74.9397C115.307 76.7485 112.061 78.1593 108.66 79.2898C106.499 80.0314 104.274 80.6373 102.04 81.1709H102.031C100.865 81.4422 99.6889 81.7044 98.5141 81.9305C96.8492 82.2742 95.1851 82.5727 93.5843 82.844C92.7252 83.0068 91.8661 83.1334 91.0431 83.269V83.2781C90.2834 83.4047 89.5328 83.5223 88.8093 83.6308C88.8183 83.4861 88.8455 83.3233 88.8636 83.1695C89.4967 82.6811 90.1297 82.1928 90.7718 81.7225C91.1878 81.3969 91.6219 81.0895 92.0469 80.782C93.2588 79.8867 94.4888 79.0095 95.7368 78.1593C95.8815 78.0508 96.0352 77.9513 96.1799 77.8518C97.5636 76.9022 98.9834 75.9888 100.412 75.1116C98.9663 74.2705 97.5365 73.3843 96.1347 72.4618C95.9809 72.3623 95.8272 72.2718 95.6735 72.1633C94.4083 71.3313 93.1684 70.4903 91.9385 69.613C91.5053 69.3146 91.0702 68.998 90.6361 68.6996C89.985 68.2293 89.3519 67.7591 88.7098 67.2888C88.6827 67.135 88.6646 66.9722 88.6465 66.8185C89.37 66.9089 90.1125 67.0175 90.8712 67.126C91.7123 67.2526 92.5625 67.3792 93.4307 67.5058C95.0585 67.75 96.7135 68.0304 98.3866 68.3288C99.3 67.0084 100.232 65.6428 101.127 64.241C102.447 62.1791 103.722 60.0447 104.889 57.8471C108.805 56.1559 112.287 54.1754 115.398 51.8783C117.93 50.0243 120.046 47.9624 121.837 45.7828ZM122.117 72.0276C119.938 70.5535 117.586 69.3327 115.117 68.3017C116.944 67.741 118.798 67.2888 120.697 66.9722C122.434 66.6648 124.125 66.5291 125.762 66.511C126.078 66.511 126.395 66.5019 126.712 66.511C125.482 68.6182 123.908 70.445 122.117 72.0276V72.0276ZM126.874 83.2057C126.558 83.2148 126.241 83.2238 125.925 83.2238C124.279 83.2419 122.597 83.1243 120.851 82.853C118.943 82.5636 117.071 82.1567 115.235 81.6412C117.686 80.5559 120.019 79.2807 122.181 77.7795C124.007 79.326 125.609 81.1166 126.874 83.2057V83.2057ZM15.302 94.2572C13.2771 91.6707 11.4584 88.867 9.83054 85.9731C12.0282 86.796 14.2891 87.4924 16.6585 87.9537C15.9983 90.0247 15.5552 92.1319 15.302 94.2572ZM9.64065 66.0136C11.2061 63.1015 12.9687 60.2618 14.9492 57.6391C15.2386 59.7553 15.728 61.8445 16.4234 63.8974C14.063 64.4219 11.8111 65.1454 9.64065 66.0136ZM134.679 56.4453C136.705 59.0318 138.523 61.8354 140.151 64.7294C137.954 63.9064 135.683 63.2101 133.341 62.7217C133.992 60.6688 134.444 58.5706 134.679 56.4453ZM125.771 74.8674C128.113 72.6698 130.103 70.0832 131.613 67.0084C134.879 67.5872 137.981 68.6454 141.02 69.9748C144.049 71.3042 147.016 72.932 150 74.6232C146.554 66.6014 141.843 57.0513 134.923 49.8344C134.724 44.8423 133.711 39.8501 132.346 35.0932C130.962 30.3452 129.208 25.8324 127.516 21.817C125.835 28.4551 123.953 34.8218 120.263 40.3385C117.496 39.4522 114.72 39.0633 111.997 39.0633H111.726C111.328 39.0723 110.93 39.0814 110.541 39.1085C110.641 35.907 110.225 32.6604 109.122 29.4227C111.844 27.5235 114.783 26.0675 117.876 24.8647C120.969 23.6618 124.197 22.7123 127.498 21.817C119.404 18.5793 109.33 15.1427 99.3452 14.9438C91.9836 8.15647 82.325 3.63461 74.267 0.360783C77.8031 6.25729 80.9322 12.095 82.1992 18.5974C79.1687 20.18 76.6274 22.2149 74.5021 24.5933C72.3135 22.2601 69.7361 20.2705 66.6793 18.7602C67.249 15.4954 68.2981 12.3934 69.6185 9.35018C70.9479 6.32054 72.5577 3.3633 74.267 0.360783C66.2633 3.78835 56.6951 8.50013 49.4691 15.4412C44.4779 15.6401 39.4758 16.644 34.7197 18.0186C29.9618 19.4023 25.4499 21.1568 21.4517 22.8479C26.5433 24.1231 31.427 25.5339 35.9126 27.7677C37.3054 28.4641 38.6619 29.2419 39.9732 30.1191C39.096 32.8774 38.7071 35.6357 38.7071 38.3579C38.7071 38.8463 38.7162 39.3256 38.7433 39.814C38.3635 39.7869 37.9746 39.7868 37.5857 39.7868C34.756 39.8139 31.9243 40.2571 29.0674 41.2158C27.1673 38.5027 25.7204 35.5725 24.5176 32.4886C23.3148 29.4047 22.3561 26.167 21.4517 22.8479C18.2231 30.924 14.7955 41.0168 14.5875 51.0191C11.1961 54.6908 8.36549 58.9505 5.97795 63.2914C3.59041 67.6324 1.64596 72.0548 0 76.0883C3.81645 73.8002 7.5967 71.684 11.5579 70.1285C13.7193 69.2783 15.9351 68.5911 18.2322 68.1479H18.2412C19.8148 71.1776 21.8496 73.7189 24.2191 75.8532C21.8948 78.0418 19.9053 80.6192 18.395 83.685C15.1211 83.1062 12.0191 82.0662 8.98949 80.7368C5.9508 79.4074 2.98443 77.7976 0 76.0883C2.72216 82.4189 6.23204 89.7172 11.0062 96.0749C12.2723 97.757 13.6199 99.3668 15.0759 100.877C15.2758 105.878 16.2787 110.87 17.6624 115.627C19.037 120.384 20.7916 124.888 22.4827 128.904C24.1558 122.229 26.0549 115.89 29.7357 110.382C32.5121 111.259 35.2705 111.648 38.0107 111.648H38.2911C38.671 111.648 39.0599 111.63 39.4397 111.603C39.3402 114.804 39.7562 118.033 40.8505 121.271C38.1283 123.17 35.1982 124.626 32.1143 125.829C29.0304 127.041 25.8018 127.999 22.4827 128.904C22.4827 128.913 22.4827 128.913 22.4827 128.913C26.7061 130.604 31.4902 132.349 36.5185 133.652C41.0946 134.845 45.8969 135.677 50.6539 135.768C51.1151 135.786 51.5944 135.795 52.0557 135.795C53.8011 135.777 55.5375 135.659 57.2558 135.397C59.372 135.108 61.4611 134.637 63.505 133.932C64.8977 133.471 66.2452 132.892 67.5928 132.205C67.647 132.186 67.7013 132.15 67.7465 132.132C70.7852 130.55 73.3355 128.506 75.4789 126.127C77.6774 128.479 80.263 130.468 83.3378 131.978C83.3831 132.006 83.4374 132.033 83.4826 132.051C84.8391 132.711 86.2137 133.263 87.6155 133.697C89.6684 134.357 91.7666 134.8 93.8738 135.053C95.4655 135.243 97.0662 135.334 98.6669 135.334H99.101C99.5713 135.325 100.042 135.316 100.513 135.288C105.504 135.089 110.505 134.086 115.253 132.702C120.01 131.327 124.515 129.573 128.529 127.882C121.891 126.2 115.524 124.318 110.009 120.629C110.885 117.87 111.274 115.112 111.274 112.39C111.274 111.892 111.265 111.395 111.238 110.907C111.636 110.925 112.025 110.934 112.422 110.925C115.235 110.898 118.084 110.454 120.924 109.487H120.942C122.832 112.209 124.289 115.157 125.491 118.241C126.684 121.325 127.644 124.563 128.548 127.864C131.776 119.778 135.204 109.695 135.403 99.7105C142.186 92.358 146.708 82.7174 149.991 74.6323C144.122 78.1413 138.279 81.3155 131.776 82.6088C130.193 79.5701 128.159 77.0198 125.771 74.8674" fill="#FADCDD"/>
</svg>
